<?xml version="1.0" standalone="no"?>
<!DOCTYPE svg PUBLIC "-//W3C//DTD SVG 1.1//EN" "http://www.w3.org/Graphics/SVG/1.1/DTD/svg11.dtd" >
<svg xmlns="http://www.w3.org/2000/svg" xmlns:xlink="http://www.w3.org/1999/xlink" version="1.1">
<metadata></metadata>
<defs>
<font id="fablabregular" horiz-adv-x="1708" >
<font-face units-per-em="2048" ascent="1638" descent="-410" />
<missing-glyph horiz-adv-x="500" />
<glyph />
<glyph />
<glyph unicode="&#xd;" />
<glyph />
<glyph />
<glyph />
<glyph />
<glyph />
<glyph />
<glyph />
<glyph />
<glyph unicode="&#x9;" />
<glyph unicode="&#xa;" />
<glyph />
<glyph />
<glyph />
<glyph />
<glyph />
<glyph />
<glyph />
<glyph unicode=" " />
<glyph unicode="." d="M666 166q0 78 55 133t133 55t133 -55t55 -133t-55 -133.5t-133 -55.5t-133 55.5t-55 133.5z" />
<glyph unicode="0" d="M176 657q0 -184 89 -340.5t244 -248t340 -91.5t343 91.5t249 248t91 340.5v283q0 186 -91 344t-249 249t-343 91t-341 -92t-244 -249t-88 -343v-283zM334 797q0 23 8 43t23.5 34.5t35 23.5t41.5 9h2h78v31v6q0 98 66.5 191.5t159.5 124.5v96q2 45 33.5 75.5t75.5 30.5 t74 -31.5t30 -74.5v-96q92 -31 158.5 -124.5t66.5 -191.5v-6v-31h78h2q45 0 76.5 -32.5t31.5 -77.5t-31.5 -77t-76.5 -32h-2h-78v-29q0 -98 -66.5 -190t-161.5 -125v-100q0 -45 -27.5 -75t-72.5 -30t-76.5 31t-31.5 74v100q-94 33 -161 125t-67 190v29h-78h-2 q-45 0 -76.5 32t-31.5 77zM707 803q0 84 36.5 136t110.5 52t108.5 -52t34.5 -136q0 -33 -5 -59.5t-16 -51t-27.5 -41t-40 -27t-54.5 -10.5q-37 0 -66.5 14.5t-46 41t-25.5 59.5t-9 74zM1516 496z" />
<glyph unicode="1" d="M164 1143q0 -49 26.5 -96.5t70.5 -77t93 -29.5q57 0 103 33v190l151 152q29 25 68 24q20 0 39.5 -8t33 -21.5t21.5 -33t8 -39.5q0 -32 -20 -61l-86 -86v-691l76 -75q31 -31 30 -72q0 -43 -30.5 -74t-73.5 -31t-74 31l-180 180h-70q-47 0 -88 -24.5t-63.5 -65.5t-22.5 -88 q0 -74 52.5 -126t125.5 -52h2h998q74 0 126 52t52 126q0 49 -23.5 90t-64.5 64.5t-90 23.5h-2h-74l-164 -163q-12 -18 -37.5 -30.5t-48.5 -12.5q-43 0 -72.5 29.5t-29.5 72.5q0 45 30 76l76 73v971v8q0 88 -62.5 150.5t-152.5 62.5q-68 0 -125 -41l-452 -266 q-33 -20 -54.5 -63t-21.5 -82z" />
<glyph unicode="2" d="M207 74v211q2 266 193.5 448t459.5 182h10h107q55 2 100 47.5t45 100.5q0 51 -42 96t-93 51v123q-2 41 -32.5 70t-71.5 29q-43 0 -73 -30t-30 -73v-6v-111q-37 -10 -80 -40.5t-65 -61.5q-14 -14 -35.5 -25.5t-45.5 -17.5t-42 -6q-49 0 -90 23.5t-64.5 64.5t-23.5 90 q0 29 13 64.5t34 58.5q76 96 218 164.5t265 68.5q111 0 242 -56t207 -138q29 -29 55.5 -71t46 -89t31.5 -95t12 -91q0 -188 -134 -330.5t-323 -153.5h-137h-12q-70 0 -144.5 -41t-111.5 -98l-111 -115q-27 -29 -26 -67q0 -43 29.5 -74t72.5 -31q41 0 72 29l184 184h516 q70 -4 119 -56t49 -121.5t-49 -122t-119 -56.5h-1046q-31 0 -54.5 20.5t-25.5 51.5z" />
<glyph unicode="3" d="M217 1116q0 35 14 68q68 170 245 290.5t360 120.5q139 0 273 -66.5t230.5 -182t128.5 -250.5v-15q0 -76 -53 -129t-129 -53h-43q-29 0 -52.5 -14.5t-37.5 -38t-14 -51.5q0 -20 8 -40t22.5 -33t34 -21.5t39.5 -8.5h2h39q84 0 145.5 -61.5t61.5 -147.5q0 -12 -2 -24 q-55 -197 -240.5 -337t-392.5 -140q-190 0 -371.5 128t-246.5 308q-14 33 -15 69q0 74 52.5 126.5t125.5 52.5q41 0 84 -22.5t66 -55.5q8 -47 39 -96.5t74 -87t88 -54.5v-96q2 -27 16 -50.5t37.5 -36.5t50.5 -13q43 0 72.5 29.5t29.5 72.5v2v92h33q53 0 92 39t39 92 q0 55 -39 93t-94 38h-2h-57h-10q-35 0 -69 14.5t-57.5 39t-38 57.5t-14.5 70q0 74 52.5 126t126.5 52h10h49q53 0 92 38t39 93q0 51 -37 90t-88 41h-27v102q0 43 -29.5 73t-72.5 30t-72.5 -30t-31.5 -71v-92q-68 -23 -129.5 -90.5t-77.5 -136.5q-23 -33 -66 -56.5t-82 -23.5 q-76 0 -128 52t-52 126z" />
<glyph unicode="4" d="M162 610q0 31 15.5 68t37.5 59l313 406l131 -86l-112 -137q-20 -25 -21 -72q0 -57 40 -97t96.5 -40t97.5 41l229 280q33 37 33 88q0 37 -18.5 68t-50 49t-68.5 18q-16 0 -37 -6t-39 -18t-29 -25l-121 -149l-131 86l295 383q27 35 72 58.5t86 23.5q82 0 138.5 -56.5 t56.5 -136.5v-4v-512l-66 -65q-16 -12 -27.5 -36t-11.5 -46q0 -43 31 -73t74 -30q20 0 44.5 11.5t36.5 29.5l99 105h10q49 0 90 -25t65.5 -65.5t24.5 -90.5q0 -35 -14 -68.5t-39 -57t-57.5 -38t-69.5 -14.5h-14l-101 94q-31 39 -80 39q-43 0 -73.5 -30.5t-30.5 -73.5 q0 -49 39 -80l74 -74v-133v-12q0 -76 -52.5 -128t-127 -52t-127 52t-52.5 128v12v141l78 78q25 29 25 66q0 43 -31 73.5t-74 30.5q-37 0 -65 -22l-113 -113h-283q-8 -2 -16 -2q-74 0 -127 53.5t-53 126.5z" />
<glyph unicode="5" d="M195 178q0 49 23.5 90t65.5 65.5t89 24.5q8 0 16 -2h631h12q39 0 72 19.5t52.5 52.5t19.5 72q0 59 -42 101t-102 42h-702q-8 -2 -17 -2q-29 0 -50 21.5t-21 50.5v8l-2 782v6q0 29 21.5 50.5t49.5 21.5h6h955h6q74 0 126 -52t52 -128q0 -45 -22.5 -85t-61.5 -65.5 t-84 -27.5h-434l-170 170q-12 18 -36.5 30.5t-47.5 12.5q-43 0 -73.5 -31t-30.5 -74q0 -59 39 -86l30 -26l25 -27l16 -29l8 -28v-29l-8 -31l-16 -31l-25 -30l-30 -31q-16 -12 -26.5 -36.5t-10.5 -45.5q0 -43 29.5 -73.5t72.5 -30.5q47 0 78 34l170 170h170 q135 -2 248.5 -69.5t180 -182t66.5 -249.5q0 -207 -147 -354.5t-354 -147.5q-29 0 -56 4h-557q-12 -2 -26 -2q-74 0 -126 52t-52 126z" />
<glyph unicode="6" d="M195 647q0 -178 88 -329.5t240.5 -239.5t330.5 -88q133 0 256 52t211 140t140 210t52 257q0 178 -88 329.5t-240.5 241t-330.5 89.5h-10l-316 -332q-31 -31 -75 -31q-43 0 -74 30t-31 75q0 47 37 77l150 154q27 23 46 63.5t19 75.5q0 74 -52 126t-126 52q-29 0 -64.5 -13 t-56.5 -32l-106 -120v-781l153 -8q0 43 31 74t72 31h6h94q31 90 120 153.5t183 63.5t182 -63.5t119 -151.5h90q43 0 74 -31t31 -74t-31 -72.5t-74 -29.5h-90q-20 -61 -78.5 -118.5t-118.5 -78.5v-94v-2q0 -45 -30.5 -75t-73.5 -30q-41 0 -71.5 30t-32.5 71v98 q-61 20 -120 77.5t-79 117.5h-105q-41 2 -69.5 32.5t-28.5 71.5l-39 2t-58 3l-56 3v-6zM197 651z" />
<glyph unicode="7" d="M197 184q0 29 14 65t33 58l805 955q25 31 24 69q0 41 -29.5 72t-72.5 31q-25 0 -51.5 -15.5t-38.5 -38.5l-160 -157h-344q-74 0 -126 52t-52 126t52 126t126 52h10h948q72 -8 124 -66.5t52 -132.5q0 -31 -13 -68.5t-34 -60.5l-946 -1173q-23 -29 -64.5 -50.5t-78.5 -21.5 q-74 0 -126 52.5t-52 125.5z" />
<glyph unicode="8" d="M190 582q0 4 3.5 12t3.5 12q0 35 25.5 60.5t60.5 25.5q16 0 28 -6h2q43 0 74 31t31 74q0 27 -13.5 50t-36 37.5t-46.5 16.5h-3q-33 0 -57 23.5t-24 58.5q0 6 2 12q2 252 182 430t434 178t435.5 -180t181.5 -436v-8q0 -33 -24 -57.5t-56 -24.5q-43 -2 -73 -33t-30 -72 q0 -43 31 -73.5t74 -30.5h2q16 8 35 8q23 0 43 -12t31.5 -31.5t11.5 -42.5q0 -12 -5 -22q-23 -248 -217 -423t-442 -175l2 155h2q43 0 74 31t31 74v8v110q2 -2 4 -2q74 0 127 53.5t53 127t-53.5 126t-126.5 52.5h-2h-109l8 141h92q76 0 128.5 53.5t52.5 126.5 q0 72 -51.5 125.5t-122.5 53.5v124v5q0 43 -31 72.5t-74 29.5t-73.5 -29.5t-30.5 -72.5v-7v-122q-70 -2 -121 -54.5t-51 -124.5q0 -74 47 -126t119 -54h116l-8 -141h-22h-89h13q-74 0 -127 -52.5t-53 -125.5q0 -74 52 -126.5t124 -54.5v-114v-6q0 -41 29.5 -70t72.5 -31 q-2 0 -2 -40t1 -74.5t-1 -40.5q-248 4 -440.5 175t-223.5 423z" />
<glyph unicode="A" d="M176 178v4v228l426 1032q27 70 100.5 111.5t153.5 41.5q74 0 146.5 -48t103.5 -115l426 -1022v-224v-12q0 -74 -52.5 -126t-126 -52t-126.5 52t-53 126q0 4 2 6v109l65 65q16 27 16 58q0 43 -29.5 73.5t-72.5 30.5q-49 0 -80 -37l-119 -119h-79l-31 396h26l27 -8l27 -19 l26 -27q12 -20 38 -33.5t48 -13.5q29 0 52.5 14.5t38 38t14.5 52.5q0 14 -5 29.5t-15.5 30t-20.5 22.5l-141 141v141q-2 27 -15.5 50.5t-37 38t-52.5 14.5t-52.5 -14.5t-37.5 -38t-14 -52.5v-4v-139l-138 -137q-36 -30 -36 -77q0 -46 30.5 -77t73.5 -31q23 0 47.5 12.5 t36.5 30.5l27 29l26 19l27 8l31 -396h-109l-121 121q-31 31 -74 31t-73.5 -29.5t-30.5 -72.5q0 -47 35 -78l28 -31v-115q2 -4 3 -8q0 -74 -53.5 -126t-127 -52t-126 52t-52.5 126z" />
<glyph unicode="B" d="M201 68l2 1136l356 -45v-2l-4 -27l-12 -26l-23 -27l-28 -26q-35 -31 -35 -76q0 -43 30.5 -74t73.5 -31q20 0 44 11.5t36 27.5l64 64l354 -4q49 0 85 40t36 91t-35 89t-84 42h-252l-162 164q-14 18 -38.5 31.5t-47.5 13.5q-43 0 -73.5 -31t-30.5 -74t30 -73l31 -27l23 -27 l14 -24l4 -25l-354 35l-2 -23v334q0 31 21.5 51.5t49.5 20.5h2l854 -2h9q145 0 249.5 -104.5t104.5 -251.5q0 -96 -63.5 -192.5t-153.5 -135.5q-43 0 -72.5 -30t-29.5 -70q0 -29 13 -52.5t36.5 -37t52.5 -13.5h4q94 -37 160.5 -135t66.5 -199q0 -127 -89 -230.5t-214 -123.5 h-925h-7q-29 0 -50 19.5t-21 48.5zM488 177q30 -30 73 -30q23 0 47.5 13.5t38.5 32.5l162 163h252q49 2 84 41t35 88q0 53 -36 93q-34 38 -80 38h-5l-354 -2l-64 64q-8 10 -21.5 19.5t-30 14.5t-28.5 5q-43 0 -73.5 -31t-30.5 -74q0 -45 35 -77l28 -25l23 -27l12 -26l4 -27 l-4 -27l-14 -26l-23 -27l-31 -26q-31 -31 -31 -73q1 -44 32 -74z" />
<glyph unicode="C" d="M184 653v283q0 186 91.5 344t249 249t343.5 91q199 0 387.5 -128t255.5 -314q12 -33 13 -68q0 -74 -51.5 -125t-124.5 -51q-45 0 -92.5 28.5t-67.5 71.5q-16 72 -78.5 141.5t-134.5 94.5v90q0 29 -14.5 51.5t-40 34.5t-54.5 12q-45 0 -76.5 -30.5t-31.5 -75.5v-97 q-94 -31 -161 -124t-67 -191v-6v-31h-77h-2q-45 0 -77 -32.5t-32 -77.5t32 -77t77 -32h2h77v-29q2 -98 68 -190t160 -125v-100q0 -43 32.5 -74t75.5 -31q45 0 77 37t32 82v2v92q70 25 133 93.5t82 140.5q20 39 66.5 67.5t89.5 28.5q74 0 126 -52.5t52 -123.5q0 -33 -13 -64 q-68 -190 -257 -327.5t-386 -137.5q-186 0 -342.5 91.5t-249 248t-92.5 340.5z" />
<glyph unicode="D" d="M201 72q0 4 2 8v1431q0 31 20.5 51.5t50.5 20.5h2h429h10q215 0 397 -105.5t288.5 -287.5t106.5 -397t-106.5 -397.5t-288.5 -289t-397 -106.5h-8h-435q-29 2 -50 22.5t-21 49.5zM483.5 188.5q30.5 -30.5 73.5 -30.5q41 0 80 39l168 165l33 3l32 6l31 10l31 14l29 19 l26 20l27 25l24 26l23 29l20 33l19 33l16 32l12 37l11 37l8 37l6 39l2 37l-2 39l-6 36l-6 37l-13 35l-12 35l-16 35l-19 31l-20 30l-23 29l-22 24l-27 25l-26 21l-29 16l-31 14l-31 13l-30 6l-33 4l-166 168q-12 18 -36.5 30.5t-47.5 12.5q-43 0 -73.5 -31t-30.5 -74 q0 -37 24 -65l84 -84v-770l-86 -88q-24 -28 -24 -63q0 -46 30.5 -76.5z" />
<glyph unicode="E" d="M207 72v2v1433v6q0 27 19.5 48.5t45.5 23.5h1039h12q74 0 126 -53t52 -127t-52 -126t-126 -52h-16h-480l-182 182q-31 31 -74 31q-29 0 -52 -14.5t-37.5 -38t-14.5 -52.5q0 -44 33 -75l30 -27l21 -29l12 -26l4 -29l-6 -27l-14 -28l-23 -29l-32 -27q-31 -35 -31 -71 q0 -43 30.5 -73t73.5 -30q41 0 70 27l80 80h350h4q49 0 90 -23.5t64.5 -65.5t23.5 -90.5t-23.5 -90.5t-64.5 -65.5t-90 -23.5h-352l-78 72q-31 35 -78 35q-43 0 -72.5 -31t-29.5 -74q0 -20 11 -43.5t28 -35.5l30 -27l21 -27l14 -26l4 -27l-6 -27l-14 -28l-23 -27l-32 -29 q-29 -29 -29 -69q0 -43 30.5 -74t73.5 -31q23 0 46.5 12.5t37.5 28.5l152 174h510h6q49 0 90 -23.5t64.5 -64.5t23.5 -90t-23.5 -90t-64.5 -65.5t-90 -24.5h-1040q-31 0 -51.5 21.5t-20.5 50.5z" />
<glyph unicode="F" d="M205 172v1337v2q0 29 20.5 49.5t48.5 22.5h1039h12q47 0 89 -24.5t65.5 -65.5t23.5 -90q0 -74 -52 -126t-126 -52h-10h-496l-168 168q-12 18 -36.5 30.5t-47.5 12.5q-43 0 -73.5 -31t-30.5 -74q0 -47 37 -80l28 -26l21 -29l10 -27l4 -26l-4 -27l-12 -24l-23 -27l-28 -25 q-31 -31 -31 -73q0 -43 30.5 -74t73.5 -31q33 0 60 19l55 55h377h10q74 0 126 -52.5t52 -125.5q0 -37 -14 -71t-37.5 -57.5t-57.5 -37.5t-69 -14h-2h-324l-112 112q-31 29 -72 29q-29 0 -53.5 -13.5t-37.5 -38t-13 -51.5q0 -47 32 -77l74 -74v-295q-2 -74 -54 -125t-126 -51 t-126 52t-52 126z" />
<glyph unicode="G" d="M211 643v2v289q0 262 186.5 450.5t450.5 190.5h49h18q74 0 126.5 -52.5t52.5 -125.5q0 -72 -51.5 -124t-122.5 -54h-64q-111 -8 -193.5 -91.5t-91.5 -191.5v-39h-116q-27 0 -50.5 -14.5t-37 -38t-13.5 -49.5q0 -43 31 -74t74 -31h110v-31v-6q0 -119 85 -203.5t204 -84.5 h359q59 2 100 44t41 99q0 39 -19.5 71.5t-52.5 52t-72 19.5h-262q-74 2 -125 54.5t-51 123.5q0 37 14.5 70t38 57.5t57.5 38t68 13.5h2h402h4q55 0 95 -39t40 -97v-6v-678v-4q0 -49 -23.5 -90t-65.5 -64.5t-89 -23.5q-61 0 -112.5 42.5t-63.5 101.5q-6 33 -36 56t-65 23 q-39 0 -68.5 -26.5t-33.5 -65.5v-59q-2 -31 -25.5 -53.5t-54.5 -22.5q-4 -2 -6 -2q-174 0 -322.5 87t-234.5 234.5t-86 321.5z" />
<glyph unicode="H" d="M213 178v1213v4q0 74 52 126t126 52t126 -52.5t52 -125.5v-4v-275l-80 -78q-26 -30 -26 -68q0 -46 29.5 -76t72.5 -30q49 0 80 35l68 70h284l74 -76q29 -27 70 -27q43 0 72.5 31t29.5 74q0 41 -26 69l-78 78v279q2 49 25.5 89t64.5 63.5t88 23.5q74 0 126 -52.5 t52 -125.5v-4v-1207v-2q0 -74 -52 -126t-126 -52q-72 0 -124 51t-54 123v289l73 74q31 31 31 73q0 27 -13 51.5t-38 38t-51 13.5q-43 0 -74 -31l-74 -74h-278l-74 74q-31 27 -70 27q-27 0 -51 -14.5t-37.5 -38t-13.5 -52.5q0 -39 27 -69l73 -74v-287q0 -74 -52 -126 t-126 -52t-126 52t-52 126z" />
<glyph unicode="I" d="M176 180q0 72 51.5 124t122.5 54h70l180 -180q31 -31 74 -31t73.5 31t30.5 72q0 43 -30 74l-89 88v755l82 80q35 31 35 80q0 41 -29.5 72t-72.5 31q-45 0 -76 -31l-176 -176h-64q-74 0 -126 52t-52 126t52.5 126t125.5 52h4h996q70 -4 119 -56.5t49 -121.5 q0 -72 -51.5 -124t-122.5 -54h-76l-189 188q-27 18 -59 19q-43 0 -73.5 -30t-30.5 -73q0 -47 34 -78l82 -82v-755l-84 -82q-30 -30 -30 -73q0 -46 29.5 -75.5t72.5 -29.5q23 0 47.5 12t38.5 31l164 163h74h2q74 0 126 -52t52 -126q0 -37 -13.5 -69.5t-38 -56t-57 -38 t-67.5 -14.5h-1000h-2q-74 0 -126 52t-52 126z" />
<glyph unicode="J" d="M178 666v2q0 74 53.5 125t124.5 51q74 0 126.5 -52.5t52.5 -125.5v-4q2 -131 95 -224.5t224 -93.5q86 0 159.5 43t117 115.5t43.5 161.5v516l75 75q31 31 31 72q0 29 -14.5 52.5t-38 38t-51.5 14.5q-43 0 -74 -33l-180 -178h-240h-4q-74 0 -126 52t-52 126t52 126t126 52 h2h793q23 -4 40 -24.5t17 -45.5v-4v-837q0 -184 -90 -340t-246 -247t-340 -91t-340 91t-246 246.5t-90 340.5z" />
<glyph unicode="K" d="M203 180v1217q0 74 53 126t127 52t126 -52.5t52 -125.5v-4v-256l-82 -82q-22 -26 -22 -61q0 -44 30.5 -74.5t73.5 -30.5q41 0 72 29l559 606q12 14 32.5 25.5t42 18.5t40.5 7q66 0 110.5 -46t44.5 -110q0 -53 -30 -94l-357 -397h-196h-5q-41 0 -71.5 -31t-30.5 -73 t31 -72.5t71 -30.5h5h219l356 -418q20 -23 35.5 -58.5t15.5 -66.5q0 -74 -53 -126t-127 -52q-33 0 -73 18.5t-62 44.5l-488 586l-69 76q-29 25 -66 25q-23 0 -41 -8.5t-32.5 -21.5t-22.5 -32.5t-8 -40.5q0 -39 24 -67l74 -74v-326q0 -74 -52 -126t-126 -52t-127 52t-53 126z " />
<glyph unicode="L" d="M219 74v1321q2 49 25.5 89t64.5 63.5t88 23.5q74 0 127.5 -52.5t53.5 -125.5v-2v-988l-76 -73q-31 -31 -31 -76q0 -43 29.5 -72.5t72.5 -29.5q39 0 68 24l182 182h492q72 -2 123 -54t51 -124t-50 -124t-122 -54h-1030q-18 0 -33.5 10.5t-25 26.5t-9.5 35z" />
<glyph unicode="M" d="M178 193q0 14 2 28l189 1204q10 68 64 115t122 47q78 0 132 -54t56 -130v-119v-2q0 -45 32 -76.5t77 -31.5t77 31.5t32 76.5v6v117q2 78 57 132t131 54q68 0 122 -47t64 -114l193 -1213q2 -14 2 -31q0 -78 -55.5 -132t-133.5 -54q-59 0 -111 40t-69 95l-96 641l139 160 q29 31 29 74q0 31 -14.5 55.5t-39 39.5t-55.5 15q-23 0 -49 -14t-39 -33l-180 -176l-174 178q-12 18 -39 32.5t-49 14.5q-45 0 -77 -32.5t-32 -77.5q0 -39 27 -70l129 -162l-94 -641q-12 -37 -40 -67.5t-66 -48t-74 -17.5q-51 0 -94.5 24.5t-69 67.5t-25.5 95z" />
<glyph unicode="N" d="M213 180v1235q8 63 60.5 109.5t117.5 46.5q12 0 25 -2l764 -733q29 -29 69 -29q43 0 74 29.5t31 72.5t-31 74l-186 186v211v11q0 47 24.5 89t65.5 65.5t88 23.5q76 0 128 -52.5t52 -125.5q0 -6 -2 -13v-1198q0 -74 -52 -126t-126 -52q-72 0 -124 51t-54 125v250l-605 588 q-31 33 -75 33q-43 0 -74 -31t-31 -74q0 -12 6.5 -28.5t15.5 -31t19 -22.5l178 -176v-504v-2q0 -76 -52 -128t-126 -52t-127 52t-53 128z" />
<glyph unicode="O" d="M176 657q0 -184 89 -340.5t244 -248t340 -91.5t343 91.5t249 248t91 340.5v283q0 186 -91 344t-249 249t-343 91t-341 -92t-244 -249t-88 -343v-283zM334 797q0 23 8 43t23.5 34.5t35 23.5t41.5 9h2h78v31v6q0 98 66.5 191.5t159.5 124.5v96q2 45 33.5 75.5t75.5 30.5 t74 -31.5t30 -74.5v-96q92 -31 158.5 -124.5t66.5 -191.5v-6v-31h78h2q45 0 76.5 -32.5t31.5 -77.5t-31.5 -77t-76.5 -32h-2h-78v-29q0 -98 -66.5 -190t-161.5 -125v-100q0 -45 -27.5 -75t-72.5 -30t-76.5 31t-31.5 74v100q-94 33 -161 125t-67 190v29h-78h-2 q-45 0 -76.5 32t-31.5 77zM1516 496z" />
<glyph unicode="P" horiz-adv-x="1705" d="M197 172v1010l352 -64l-12 -24l-23 -27l-31 -25q-32 -30 -32 -71q0 -45 30.5 -76t73.5 -31q35 0 61 21l80 80h344q51 4 86 41.5t35 89.5q0 47 -33.5 86t-80.5 45h-236l-172 170q-6 10 -15.5 17t-20.5 12.5t-23.5 8.5t-22.5 3q-43 0 -73.5 -30t-30.5 -73q0 -20 11 -44.5 t28 -37.5l26 -30l21 -27l12 -25l4 -26l-6 -27l-41 8l-307 45l-4 11v327q0 31 21.5 51.5t49.5 20.5h2h750h2h2q201 0 344 -142.5t143 -345t-143 -345t-344 -142.5h-10h-314l-67 68q-12 16 -37 28.5t-45 12.5q-43 0 -74 -31t-31 -74t31 -73l76 -76v-285q0 -74 -52 -126 t-126 -52q-72 0 -125 51t-53 123z" />
<glyph unicode="Q" d="M201 637l1 5t1 7l-2 178l151 -28v-4q0 -41 30 -72t73 -31h110v-235v-4q0 -72 51.5 -124.5t124 -52.5t123.5 52.5t51 124.5v2v229l226 258q0 53 -24.5 107.5t-66.5 97.5t-92 61v123q0 29 -14 52.5t-37.5 37t-52.5 13.5q-41 0 -71.5 -30t-30.5 -73v-123 q-76 -29 -130.5 -107.5t-54.5 -160.5v-41h-108q-43 0 -74 -29.5t-33 -70.5l-151 28l2 113q0 131 52 252t139 208t208 138t252 51q176 0 325.5 -87t237.5 -236.5t90 -325.5v-72l-276 -342q-35 -31 -35 -77q0 -43 29.5 -74t72.5 -31q47 0 80 35l66 -66q25 -23 42 -61.5 t17 -73.5q0 -74 -52 -127t-128 -53q-63 0 -113 41l-61 67q18 27 18 60q0 29 -14 52.5t-37.5 37.5t-52.5 14q-43 0 -74 -30l-209 -246q-240 25 -409.5 213t-169.5 430z" />
<glyph unicode="R" d="M193 174v4v1327v4q0 29 21.5 50.5t49.5 21.5h4h860q160 -6 274 -124t114 -277q0 -168 -118 -286t-286 -118q-29 0 -55 4q-8 2 -15 2q-43 0 -73.5 -30.5t-30.5 -73.5t30.5 -74t73.5 -31q6 0 13 2h116l271 -268q18 -20 32.5 -56t14.5 -67q0 -74 -52.5 -126t-125.5 -52 q-33 0 -71 16.5t-60 38.5l-547 560q-12 16 -38 28.5t-46 12.5q-43 0 -74 -30t-31 -73q0 -41 27 -70l80 -81v-238q0 -72 -52.5 -124t-125.5 -52q-74 0 -127 53t-53 127zM446 1329q0 -49 39 -82l29 -28l23 -29l14 -31l6 -29v-28l-8 -31l-14 -29l-23 -28l-31 -31 q-32 -30 -32 -73q0 -46 30.5 -76.5t73.5 -30.5q47 0 78 37l104 90h322q59 0 101 42t42 101q0 39 -18.5 72t-51 52.5t-71.5 19.5h-250l-182 184q-31 31 -76 31q-43 0 -74 -30t-31 -73z" />
<glyph unicode="S" d="M121 559q0 78 55 132t133 54q33 0 73 -16t62 -41l486 -485q33 -33 78 -33q29 0 54 15.5t39.5 40t14.5 55.5q0 45 -33 77l-596 584q-20 41 -35.5 100.5t-15.5 104.5q0 172 123 300t297 134h303l330 -319q23 -23 40 -63t17 -73q0 -78 -55 -133t-133 -55q-20 0 -46 8 t-49.5 20.5t-37.5 26.5l-348 355q-32 36 -79 36h-3q-31 0 -55.5 -14t-39 -38.5t-14.5 -55.5q0 -35 21 -64l657 -624q37 -82 37 -170q0 -158 -110.5 -281t-268.5 -139h-418l-440 442q-12 14 -21.5 35t-15.5 43.5t-6 40.5z" />
<glyph unicode="T" d="M172 1399q0 72 51 124t123 54h995h17q74 0 126 -52t52 -126t-52 -126t-126 -52h-72l-172 172q-12 18 -36.5 29.5t-45.5 11.5q-43 0 -73.5 -30t-30.5 -73t28 -71l80 -80v-1004q-2 -74 -54 -126t-126 -52q-72 0 -124 52t-54 124v1008l72 71q32 30 32 71q0 45 -30.5 76.5 t-73.5 31.5q-20 0 -45 -12.5t-37 -28.5l-170 -170h-72h-4q-29 0 -56.5 9t-49 25.5t-38 38t-25.5 49t-9 56.5z" />
<glyph unicode="U" d="M176 653v748v2q0 76 52.5 128t126 52t125.5 -52t52 -128v-2v-551h-102h-8q-43 0 -73 -31t-30 -74q0 -29 13.5 -52t37 -36.5t52.5 -13.5h6h107q8 -125 102 -214t220 -89t220 89t103 214h110q27 0 50.5 14.5t38 38t14.5 52.5q0 41 -31 71.5t-74 30.5h-2h-110v547v4 q0 74 52 126t126 52q37 0 69.5 -13.5t56 -37t38 -56t14.5 -69.5v-752q0 -182 -91 -337.5t-248 -246t-339 -90.5q-184 0 -340 90.5t-247 247t-91 338.5z" />
<glyph unicode="V" d="M182 1417q0 78 54.5 132.5t132.5 54.5q49 0 98 -30t70 -73l211 -600v-477v-21q0 -45 31.5 -76.5t76.5 -31.5t77 31.5t32 76.5q0 10 -2 21v477l206 590q20 45 70.5 75.5t99.5 30.5q78 0 132.5 -55t54.5 -133q0 -31 -10 -59l-508 -1274q-20 -39 -64.5 -67.5t-89.5 -28.5 q-29 0 -59.5 13t-55 34.5t-37.5 46.5l-509 1282q-10 29 -11 61z" />
<glyph unicode="W" d="M178 1413q0 78 55.5 132t133.5 54q59 0 111 -39.5t69 -95.5l96 -657l-139 -160q-29 -31 -29 -74q0 -45 32 -77.5t77 -32.5q23 0 49 14.5t39 32.5l180 176l174 -178q12 -18 39 -32.5t49 -14.5q31 0 55.5 15.5t39 40t14.5 54.5q0 39 -27 70l-129 162l94 657q16 55 69.5 94 t110.5 39q78 0 133.5 -54t55.5 -132q0 -14 -2 -29l-189 -1220q-10 -68 -64 -115t-122 -47q-78 0 -132 54t-56 130v119v2q0 45 -32 77t-77 32q-31 0 -55.5 -14.5t-38.5 -40t-14 -54.5v-6v-117q-2 -78 -57.5 -132t-131.5 -54q-68 0 -122 47t-64 113l-193 1230q-2 14 -2 31z " />
<glyph unicode="X" d="M176 186q0 68 43 119l373 377h2q29 0 54.5 15.5t39.5 40t14 55.5q0 45 -31.5 76.5t-76.5 31.5h-4l-375 383q-35 49 -35 109q0 78 54.5 133t132.5 55q39 0 83 -21.5t66 -52.5l229 -229v-231v-3q0 -45 32 -76.5t77 -31.5t77 31.5t32 76.5v3v229l231 231q23 31 67 52.5 t82 21.5q78 0 133.5 -54t55.5 -132q0 -59 -35 -109l-387 -385q-29 -2 -52.5 -17.5t-36.5 -40t-13 -50.5q0 -23 8 -42.5t22.5 -35t35 -23.5t42.5 -8l375 -375q41 -53 41 -119q0 -78 -55.5 -133t-133.5 -55q-39 0 -84 23.5t-67 54.5l-229 229v230q0 45 -32 76.5t-77 31.5 t-77 -31.5t-32 -76.5v-234l-229 -229q-23 -31 -68 -53.5t-83 -22.5q-78 0 -133.5 54.5t-55.5 131.5z" />
<glyph unicode="Y" d="M178 1393q0 78 55.5 132t133.5 54q37 0 81 -21.5t68 -52.5l227 -227v-258v-4q0 -31 14.5 -55.5t40 -39t54.5 -14.5q45 0 77 31t34 76v262l229 229q16 20 42 38t54.5 28t52.5 10q78 0 133.5 -55.5t55.5 -132.5q0 -59 -33 -107l-457 -455v-649q0 -51 -25.5 -94t-68.5 -67.5 t-94 -24.5q-76 0 -131 54t-57 130v651l-451 451q-35 49 -35 111z" />
<glyph unicode="Z" d="M174 178q0 29 13.5 65t33.5 56l830 958q24 28 24 65q0 30 -13 54.5t-37 37.5t-52 13q-25 0 -51.5 -15t-38.5 -36l-156 -155h-375q-74 0 -126 52t-52 126t52.5 126t125.5 52h6h1002q72 -2 122 -54.5t50 -123.5q0 -37 -14 -70l-850 -1001q-31 -31 -31 -74t30.5 -73.5 t73.5 -30.5q14 0 30.5 6t31 16t22.5 21l162 163h369q74 0 126 -52t52 -126t-52 -126t-126 -52h-2h-1006q-72 0 -123 52t-51 126z" />
<glyph unicode="&#xa0;" />
<glyph unicode="&#xc9;" d="M207 72v2v1433v6q0 27 19.5 48.5t45.5 23.5h1039h12q74 0 126 -53t52 -127t-52 -126t-126 -52h-16h-480l-182 182q-31 31 -74 31q-29 0 -52 -14.5t-37.5 -38t-14.5 -52.5q0 -44 33 -75l30 -27l21 -29l12 -26l4 -29l-6 -27l-14 -28l-23 -29l-32 -27q-31 -35 -31 -71 q0 -43 30.5 -73t73.5 -30q41 0 70 27l80 80h350h4q49 0 90 -23.5t64.5 -65.5t23.5 -90.5t-23.5 -90.5t-64.5 -65.5t-90 -23.5h-352l-78 72q-31 35 -78 35q-43 0 -72.5 -31t-29.5 -74q0 -20 11 -43.5t28 -35.5l30 -27l21 -27l14 -26l4 -27l-6 -27l-14 -28l-23 -27l-32 -29 q-29 -29 -29 -69q0 -43 30.5 -74t73.5 -31q23 0 46.5 12.5t37.5 28.5l152 174h510h6q49 0 90 -23.5t64.5 -64.5t23.5 -90t-23.5 -90t-64.5 -65.5t-90 -24.5h-1040q-31 0 -51.5 21.5t-20.5 50.5zM544 1945.5q-1 73.5 50 125.5l168 167q4 2 8 7q51 53 125 53t126 -52.5 t52 -127t-51 -125.5l-8 -8l-166 -166q-51 -51 -125 -51.5t-127 53.5q-51 51 -52 124.5z" />
<glyph unicode="&#x2000;" horiz-adv-x="1149" />
<glyph unicode="&#x2001;" horiz-adv-x="2298" />
<glyph unicode="&#x2002;" horiz-adv-x="1149" />
<glyph unicode="&#x2003;" horiz-adv-x="2298" />
<glyph unicode="&#x2004;" horiz-adv-x="766" />
<glyph unicode="&#x2005;" horiz-adv-x="574" />
<glyph unicode="&#x2006;" horiz-adv-x="383" />
<glyph unicode="&#x2007;" horiz-adv-x="383" />
<glyph unicode="&#x2008;" horiz-adv-x="287" />
<glyph unicode="&#x2009;" horiz-adv-x="459" />
<glyph unicode="&#x200a;" horiz-adv-x="127" />
<glyph unicode="&#x202f;" horiz-adv-x="459" />
<glyph unicode="&#x205f;" horiz-adv-x="574" />
<glyph unicode="&#x25fc;" horiz-adv-x="1024" d="M0 0z" />
</font>
</defs>
</svg>
